<svg xmlns="http://www.w3.org/2000/svg" width="2000" height="2000" viewBox="0 0 2000 2000" version="1.1"><path d="M 675.113 574.583 L 673.082 577.166 671.041 582.621 L 669 588.075 669 589.008 L 669 589.941 666.500 595.406 L 664 600.872 663.990 602.186 L 663.980 603.500 661.490 608.849 L 659 614.199 658.999 615.849 L 658.998 617.500 656.111 623.604 L 653.223 629.708 652.498 633.104 L 651.774 636.500 649.887 640.695 L 648 644.890 648 646.749 L 648 648.607 645.573 653.554 L 643.146 658.500 642.084 662.500 L 641.022 666.500 638.511 671.419 L 636 676.339 636 677.700 L 636 679.060 633.500 685 L 631 690.940 631 693.258 L 631 695.577 628.975 699.539 L 626.951 703.500 625.872 707.491 L 624.793 711.482 623.036 713.991 L 621.278 716.500 620.003 722 L 618.728 727.500 616.864 731.210 L 615 734.920 614.996 737.210 L 614.992 739.500 612 745.500 L 609.008 751.500 609.004 753.846 L 609 756.191 607.019 758.973 L 605.038 761.755 603.603 767.264 L 602.168 772.774 600.730 775.637 L 599.292 778.500 598.181 783 L 597.071 787.500 595.035 791.461 L 593 795.423 593 797.807 L 593 800.191 591.016 802.978 L 589.032 805.764 587.648 811.632 L 586.265 817.500 584.229 821 L 582.194 824.500 581.475 828 L 580.756 831.500 578.878 835.210 L 577 838.920 577 841.196 L 577 843.471 574.589 848.486 L 572.179 853.500 570.670 858 L 569.161 862.500 566.919 869 L 564.676 875.500 562.947 879 L 561.217 882.500 560.494 886 L 559.771 889.500 557.385 895.220 L 555 900.940 555 903.347 L 555 905.755 553.442 907.048 L 551.884 908.341 550.442 911.793 L 549 915.244 549 917.170 L 549 919.097 547.109 923.011 L 545.217 926.926 543.953 932.194 L 542.690 937.462 540.849 940.481 L 539.007 943.500 539.004 945.403 L 539 947.306 536 953.656 L 533 960.005 533 961.543 L 533 963.080 530.995 967.009 L 528.990 970.939 527.579 976.356 L 526.168 981.774 524.637 984.736 L 523.105 987.698 521.888 992.599 L 520.672 997.500 519.234 999.730 L 517.796 1001.960 516.860 1006.127 L 515.924 1010.295 513.606 1015.398 L 511.289 1020.500 510.014 1024.500 L 508.739 1028.500 508.001 1029.500 L 507.262 1030.500 505.997 1036 L 504.732 1041.500 503.274 1044.378 L 501.816 1047.256 500.346 1052.205 L 498.877 1057.155 496.942 1060.327 L 495.007 1063.500 495.003 1065.500 L 494.998 1067.500 491.999 1073.840 L 489 1080.180 489 1082.154 L 489 1084.129 487.048 1088.815 L 485.096 1093.500 483.955 1098 L 482.814 1102.500 481.343 1104.149 L 479.872 1105.799 478.552 1110.649 L 477.232 1115.500 475.116 1120.333 L 473 1125.166 472.990 1126.833 L 472.980 1128.500 470.490 1133.849 L 468 1139.199 467.996 1140.849 L 467.992 1142.500 465 1148.500 L 462.008 1154.500 461.972 1156.500 L 461.937 1158.500 458.969 1164.475 L 456 1170.449 455.969 1172.975 L 455.937 1175.500 453.478 1180.500 L 451.018 1185.500 451.009 1187.296 L 451 1189.092 448.500 1193.788 L 446 1198.484 445.996 1200.992 L 445.993 1203.500 444.054 1206.680 L 442.115 1209.859 440.956 1214.163 L 439.797 1218.467 437.540 1222.983 L 435.283 1227.500 434.624 1231.787 L 433.965 1236.073 431.982 1239.772 L 430 1243.470 430 1245.594 L 430 1247.718 427 1253.340 L 424 1258.962 424 1260.635 L 424 1262.307 421.534 1267.519 L 419.069 1272.731 418.075 1277.166 L 417.081 1281.601 415.062 1286.050 L 413.044 1290.500 413.022 1292.518 L 413 1294.536 410.500 1298.215 L 408 1301.894 408 1303.917 L 408 1305.941 405.536 1311.327 L 403.073 1316.712 402.040 1321.323 L 401.007 1325.933 399.072 1330.217 L 397.138 1334.500 395.487 1339.500 L 393.836 1344.500 391.500 1351.213 L 389.165 1357.927 387.582 1360.186 L 386 1362.445 385.973 1364.473 L 385.946 1366.500 382.973 1373.471 L 380 1380.442 379.996 1382.471 L 379.993 1384.500 378.171 1387.500 L 376.350 1390.500 375.123 1395.401 L 373.895 1400.302 372.363 1403.264 L 370.832 1406.226 369.422 1411.639 L 368.012 1417.052 366.256 1419.716 L 364.500 1422.379 363.308 1426.939 L 362.116 1431.500 359.924 1438 L 357.732 1444.500 355.366 1449.446 L 353 1454.393 353 1455.932 L 353 1457.471 350.627 1462.486 L 348.254 1467.500 346.697 1472.500 L 345.140 1477.500 343.412 1482.500 L 341.683 1487.500 339.841 1491.136 L 338 1494.772 338 1498.279 L 338 1501.786 339.582 1502.393 L 341.164 1503 454.148 1503 L 567.131 1503 569.066 1501.965 L 571 1500.930 571 1497.930 L 571 1494.930 572.575 1492.526 L 574.150 1490.122 575.501 1483.667 L 576.851 1477.212 578.926 1473.146 L 581 1469.080 581.010 1466.790 L 581.020 1464.500 583.592 1459 L 586.165 1453.500 587.027 1448.268 L 587.889 1443.035 589.431 1439.768 L 590.972 1436.500 591.976 1431.169 L 592.979 1425.838 594.954 1423.064 L 596.930 1420.289 597.598 1415.895 L 598.266 1411.500 600.633 1405.780 L 603 1400.060 603 1398.232 L 603 1396.404 605.980 1387.952 L 608.961 1379.500 608.980 1377.710 L 609 1375.920 610.864 1372.210 L 612.728 1368.500 614 1363 L 615.272 1357.500 617.016 1354 L 618.760 1350.500 619.465 1346 L 620.170 1341.500 622.146 1337.601 L 624.123 1333.703 625.138 1328.101 L 626.153 1322.500 627.639 1320.190 L 629.124 1317.881 629.992 1312.550 L 630.860 1307.218 633.180 1302.359 L 635.500 1297.500 796.987 1297.500 L 958.473 1297.500 959.760 1300.186 L 961.048 1302.872 962.618 1309.686 L 964.188 1316.500 965.960 1320 L 967.731 1323.500 968.882 1328.500 L 970.032 1333.500 971.911 1338 L 973.790 1342.500 976.348 1350.500 L 978.907 1358.500 979.594 1363 L 980.281 1367.500 982.107 1371.143 L 983.932 1374.787 985.882 1381.643 L 987.833 1388.500 989.416 1393.250 L 991 1398 992.589 1402.750 L 994.178 1407.500 995.196 1411.500 L 996.214 1415.500 998.593 1421.735 L 1000.972 1427.971 1001.633 1432.235 L 1002.294 1436.500 1004.563 1441 L 1006.833 1445.500 1007.528 1449.892 L 1008.224 1454.285 1010.602 1459.392 L 1012.980 1464.500 1012.990 1467.151 L 1013 1469.801 1015.490 1475.151 L 1017.980 1480.500 1018 1483.500 L 1018.020 1486.500 1020.510 1491.849 L 1023 1497.199 1023 1498.528 L 1023 1499.857 1024.571 1501.429 L 1026.143 1503 1140.137 1503 L 1254.131 1503 1256.066 1501.965 L 1258 1500.930 1258 1498.303 L 1258 1495.676 1255.557 1491.507 L 1253.114 1487.338 1251.934 1482.419 L 1250.754 1477.500 1248.988 1474.381 L 1247.222 1471.262 1246.155 1466.381 L 1245.088 1461.500 1243.044 1457.539 L 1241 1453.577 1240.990 1451.539 L 1240.980 1449.500 1238.535 1444.247 L 1236.090 1438.995 1235.408 1435.247 L 1234.727 1431.500 1232.487 1427 L 1230.246 1422.500 1229.515 1419 L 1228.784 1415.500 1226.892 1412.382 L 1225 1409.264 1225 1407.050 L 1225 1404.835 1222 1398 L 1219 1391.165 1218.990 1389.332 L 1218.980 1387.500 1216.646 1382.487 L 1214.311 1377.474 1213.570 1373.521 L 1212.828 1369.568 1210.930 1366.902 L 1209.032 1364.236 1207.619 1358.368 L 1206.205 1352.500 1204.603 1348.782 L 1203 1345.064 1202.983 1342.782 L 1202.966 1340.500 1200 1335.500 L 1197.034 1330.500 1197.017 1328.217 L 1197 1325.934 1194.500 1321 L 1192 1316.066 1191.990 1314.283 L 1191.980 1312.500 1189.657 1307.500 L 1187.334 1302.500 1186.747 1298.858 L 1186.161 1295.216 1183.580 1289.762 L 1181 1284.307 1180.996 1281.904 L 1180.993 1279.500 1178.963 1276.171 L 1176.934 1272.842 1175.551 1267.534 L 1174.168 1262.226 1172.705 1259.363 L 1171.241 1256.500 1170.498 1253 L 1169.756 1249.500 1167.787 1245.612 L 1165.819 1241.724 1164.367 1236.112 L 1162.914 1230.500 1160.957 1226.434 L 1159 1222.369 1159 1220.833 L 1159 1219.298 1156.555 1214.699 L 1154.109 1210.100 1153.404 1206.300 L 1152.698 1202.500 1150.975 1198.460 L 1149.251 1194.420 1148.514 1190.960 L 1147.777 1187.500 1145.389 1182.220 L 1143 1176.941 1143 1175.220 L 1143.001 1173.500 1140.140 1167.500 L 1137.278 1161.500 1135.556 1156.500 L 1133.835 1151.500 1132.352 1145.500 L 1130.870 1139.500 1129.082 1136.443 L 1127.295 1133.386 1126.646 1129.925 L 1125.996 1126.464 1124.007 1122.752 L 1122.017 1119.040 1120.976 1114.394 L 1119.935 1109.747 1118.081 1105.624 L 1116.226 1101.500 1115.505 1098 L 1114.783 1094.500 1112.972 1091 L 1111.162 1087.500 1110.021 1082.571 L 1108.881 1077.642 1107.079 1075.071 L 1105.277 1072.500 1104.548 1068.500 L 1103.819 1064.500 1101.409 1059.404 L 1099 1054.307 1098.996 1051.904 L 1098.993 1049.500 1097.151 1046.481 L 1095.310 1043.462 1094.019 1037.981 L 1092.728 1032.500 1091.006 1029 L 1089.284 1025.500 1088.594 1022.500 L 1087.905 1019.500 1085.610 1014.500 L 1083.315 1009.500 1081.548 1004.500 L 1079.781 999.500 1078.075 993.500 L 1076.369 987.500 1074.635 983.508 L 1072.900 979.517 1071.916 975.008 L 1070.931 970.500 1069.043 967.896 L 1067.156 965.291 1066.030 960.896 L 1064.904 956.500 1062.952 951.815 L 1061 947.129 1061 945.187 L 1061 943.244 1059.328 939.372 L 1057.656 935.500 1055.245 929 L 1052.834 922.500 1050.817 916.500 L 1048.799 910.500 1046.900 906.864 L 1045 903.228 1045 901.031 L 1045 898.835 1042 892 L 1039 885.165 1038.996 882.832 L 1038.993 880.500 1036.963 877.171 L 1034.934 873.842 1033.560 868.671 L 1032.186 863.500 1030.115 859 L 1028.044 854.500 1028.022 852.704 L 1028 850.908 1025.500 846.212 L 1023 841.516 1023 839.218 L 1023 836.920 1020.997 832.993 L 1018.993 829.066 1017.916 823.783 L 1016.840 818.500 1014.939 815.816 L 1013.038 813.133 1011.996 808.480 L 1010.953 803.828 1009.112 800.164 L 1007.270 796.500 1006.552 792.547 L 1005.833 788.593 1004 785 L 1002.167 781.407 1001.447 777.453 L 1000.727 773.500 998.210 768.500 L 995.693 763.500 994.941 760.500 L 994.189 757.500 992.201 752.500 L 990.212 747.500 987.470 738.500 L 984.728 729.500 981.864 723.500 L 978.999 717.500 979 714.992 L 979 712.484 976.623 707.992 L 974.246 703.500 973.501 700 L 972.756 696.500 970.961 692.953 L 969.167 689.407 968.447 685.453 L 967.727 681.500 965.500 677 L 963.273 672.500 962.552 668.500 L 961.832 664.500 960 661.500 L 958.168 658.500 957.449 654.500 L 956.730 650.500 954.365 646.412 L 952 642.324 952 640.132 L 952 637.940 949.500 632 L 947 626.060 947 624.265 L 947 622.470 944.109 616.485 L 941.219 610.500 940.503 607.127 L 939.787 603.753 938.004 600.627 L 936.221 597.500 935.568 593.764 L 934.915 590.028 932.979 585.764 L 931.044 581.500 931.022 579.205 L 931 576.909 928.545 574.455 L 926.091 572 801.618 572 L 677.145 572 675.113 574.583 M 960.155 573.596 L 957.810 575.246 958.193 583.873 L 958.576 592.500 960.669 597 L 962.762 601.500 963.484 604 L 964.205 606.500 965.969 609.581 L 967.734 612.663 969.006 616.581 L 970.278 620.500 971.958 623 L 973.639 625.500 975.917 631.500 L 978.195 637.500 979.492 642.060 L 980.788 646.620 983.321 651.560 L 985.853 656.500 988.426 662.014 L 991 667.529 991 669.022 L 991 670.516 993.500 675.212 L 996 679.908 996.004 681.204 L 996.008 682.500 999 688.500 L 1001.992 694.500 1001.996 695.638 L 1002 696.775 1005.067 703.638 L 1008.133 710.500 1010.470 715.500 L 1012.807 720.500 1013.434 723.500 L 1014.061 726.500 1017.389 730.453 L 1020.718 734.405 1046.588 734.120 L 1072.458 733.835 1072.979 733.525 L 1073.500 733.216 1102 732.504 L 1130.500 731.792 1131.284 731.316 L 1132.068 730.840 1202.876 730.924 L 1273.684 731.009 1281.592 732.063 L 1289.500 733.117 1302.671 734.484 L 1315.843 735.851 1318.249 737.428 L 1320.655 739.004 1326.578 740.095 L 1332.500 741.187 1337.596 743.593 L 1342.693 746 1344.442 746 L 1346.191 746 1348.846 747.886 L 1351.500 749.771 1355.162 751.298 L 1358.823 752.824 1366.762 758.879 L 1374.701 764.935 1379.306 770.717 L 1383.911 776.500 1385.875 779.061 L 1387.839 781.621 1390.782 788.561 L 1393.726 795.500 1395.437 802 L 1397.148 808.500 1398.166 813.500 L 1399.183 818.500 1398.726 836 L 1398.269 853.500 1396.560 857.980 L 1394.851 862.460 1394.283 867.480 L 1393.715 872.500 1391.358 876.992 L 1389 881.484 1389 883.105 L 1389 884.725 1386.250 888.332 L 1383.500 891.938 1380.750 896.349 L 1378 900.759 1378 901.771 L 1378 902.782 1369.340 910.979 L 1360.681 919.177 1356.677 921.838 L 1352.672 924.500 1349.086 926.772 L 1345.500 929.043 1342 930.608 L 1338.500 932.172 1332.821 935.086 L 1327.142 938 1324.821 938.022 L 1322.500 938.044 1318.428 939.893 L 1314.356 941.743 1305.428 942.976 L 1296.500 944.210 1290.500 945.787 L 1284.500 947.363 1198.169 947.932 L 1111.838 948.500 1110.419 950.441 L 1109 952.382 1109 953.969 L 1109 955.555 1113 963.377 L 1117 971.198 1117 972.546 L 1117 973.894 1119.500 978.596 L 1122 983.298 1122 984.713 L 1122 986.128 1124.500 991.594 L 1127 997.059 1127.017 998.280 L 1127.034 999.500 1130 1004.500 L 1132.966 1009.500 1132.983 1011.220 L 1133 1012.940 1136 1018.844 L 1139 1024.747 1139.022 1026.624 L 1139.044 1028.500 1141 1031 L 1142.956 1033.500 1142.978 1035.279 L 1143 1037.057 1146 1043 L 1149 1048.943 1149.017 1050.721 L 1149.034 1052.500 1152 1057.500 L 1154.966 1062.500 1154.987 1064.500 L 1155.007 1066.500 1156.852 1069.524 L 1158.696 1072.548 1159.870 1076.106 L 1161.044 1079.664 1163.022 1083.543 L 1165 1087.423 1165 1089.516 L 1165 1091.608 1168 1096.339 L 1171 1101.069 1171 1101.880 L 1171 1102.690 1172.750 1104.274 L 1174.501 1105.858 1240.500 1106.251 L 1306.500 1106.643 1316.500 1108.703 L 1326.500 1110.764 1334.500 1111.470 L 1342.500 1112.176 1346.997 1114.141 L 1351.494 1116.106 1355.997 1116.695 L 1360.500 1117.284 1364.500 1119.524 L 1368.500 1121.763 1371.404 1122.439 L 1374.307 1123.115 1378.584 1126.058 L 1382.860 1129 1383.377 1129 L 1383.893 1129 1389.963 1132.558 L 1396.034 1136.116 1406.267 1146.392 L 1416.500 1156.668 1419.106 1161.084 L 1421.713 1165.500 1424.312 1170.500 L 1426.912 1175.500 1429.456 1181.371 L 1432 1187.242 1432 1190.085 L 1432 1192.929 1433.997 1203.215 L 1435.994 1213.500 1435.999 1222.500 L 1436.004 1231.500 1433.959 1245 L 1431.913 1258.500 1430.843 1261.500 L 1429.773 1264.500 1427.923 1269.794 L 1426.073 1275.088 1424.168 1277.794 L 1422.262 1280.500 1421.515 1283 L 1420.768 1285.500 1418.151 1289 L 1415.534 1292.500 1413.851 1294.500 L 1412.168 1296.500 1408.466 1301 L 1404.763 1305.500 1399.632 1309.789 L 1394.500 1314.079 1391.969 1316.289 L 1389.437 1318.500 1385.969 1320.318 L 1382.500 1322.137 1379.320 1323.907 L 1376.140 1325.678 1373.820 1327.187 L 1371.500 1328.697 1367.500 1329.987 L 1363.500 1331.278 1361 1333.017 L 1358.500 1334.756 1354 1335.500 L 1349.500 1336.244 1344.500 1338.215 L 1339.500 1340.186 1331 1341.052 L 1322.500 1341.918 1311.129 1343.959 L 1299.758 1346 1289.313 1346 L 1278.869 1346 1276.934 1347.035 L 1275 1348.070 1275 1351.631 L 1275 1355.191 1276.897 1357.855 L 1278.793 1360.518 1279.993 1364.974 L 1281.193 1369.430 1283.096 1371.850 L 1285 1374.270 1285 1375.788 L 1285 1377.307 1287.426 1382.436 L 1289.853 1387.565 1290.568 1390.532 L 1291.283 1393.500 1293.544 1397.500 L 1295.804 1401.500 1296.466 1404.681 L 1297.129 1407.862 1298.561 1409.051 L 1299.994 1410.240 1301.419 1414.870 L 1302.844 1419.500 1304.922 1423.461 L 1307 1427.423 1307 1428.753 L 1307 1430.083 1310 1436.500 L 1313 1442.917 1313 1444.323 L 1313 1445.730 1314.924 1448.177 L 1316.849 1450.623 1318.799 1456.062 L 1320.750 1461.500 1321.974 1465 L 1323.198 1468.500 1326.099 1474.179 L 1329 1479.858 1329 1481.280 L 1329 1482.702 1331.617 1487.601 L 1334.235 1492.500 1335.653 1497.240 L 1337.071 1501.980 1339.663 1502.630 L 1342.254 1503.281 1367.377 1502.736 L 1392.500 1502.191 1396.500 1500.739 L 1400.500 1499.288 1408 1498.598 L 1415.500 1497.909 1421.500 1496.024 L 1427.500 1494.139 1435.722 1493.095 L 1443.944 1492.050 1447.722 1490.426 L 1451.500 1488.801 1457.582 1487.488 L 1463.664 1486.175 1467.082 1484.091 L 1470.500 1482.007 1473.500 1481.995 L 1476.500 1481.982 1481.500 1479.522 L 1486.500 1477.063 1488.269 1477.031 L 1490.038 1477 1495.660 1474 L 1501.282 1471 1503.064 1471 L 1504.847 1471 1507.673 1468.637 L 1510.500 1466.274 1513 1465.496 L 1515.500 1464.718 1522.428 1461.353 L 1529.356 1457.987 1531.007 1456.494 L 1532.657 1455 1533.424 1455 L 1534.191 1455 1537.346 1452.752 L 1540.500 1450.504 1543.118 1449.002 L 1545.736 1447.500 1553.232 1442.423 L 1560.727 1437.346 1572.114 1427.769 L 1583.500 1418.192 1594.500 1406.746 L 1605.500 1395.300 1612.824 1385.718 L 1620.148 1376.136 1623.574 1370.447 L 1627 1364.758 1627 1364.091 L 1627 1363.424 1629.959 1359.962 L 1632.919 1356.500 1632.959 1354.900 L 1633 1353.301 1635.982 1348.900 L 1638.964 1344.500 1639.013 1342.500 L 1639.062 1340.500 1641.526 1336.500 L 1643.990 1332.500 1643.995 1330.992 L 1644 1329.484 1646.379 1324.992 L 1648.759 1320.500 1649.464 1316 L 1650.170 1311.500 1652.195 1307.509 L 1654.219 1303.518 1655.125 1297.009 L 1656.030 1290.500 1658.132 1282.500 L 1660.233 1274.500 1661.040 1264.500 L 1661.846 1254.500 1663.104 1241.961 L 1664.362 1229.421 1663.120 1214.961 L 1661.877 1200.500 1661.023 1192 L 1660.168 1183.500 1658.189 1178 L 1656.210 1172.500 1655.491 1167.103 L 1654.772 1161.706 1652.396 1156.603 L 1650.020 1151.500 1650.010 1149.946 L 1650 1148.393 1647.422 1142.946 L 1644.845 1137.500 1639.172 1126.048 L 1633.500 1114.595 1631.434 1112.048 L 1629.369 1109.500 1624.934 1103.001 L 1620.500 1096.502 1611.554 1086.001 L 1602.608 1075.500 1596.001 1069.500 L 1589.394 1063.500 1583.783 1058.722 L 1578.172 1053.945 1570.426 1048.722 L 1562.680 1043.500 1558.590 1040.780 L 1554.500 1038.059 1546.772 1034.030 L 1539.044 1030 1537.677 1030 L 1536.310 1030 1534.534 1028.038 L 1532.758 1026.075 1529.129 1024.971 L 1525.500 1023.866 1522 1022.010 L 1518.500 1020.154 1513.500 1018.902 L 1508.500 1017.650 1505.500 1015.829 L 1502.500 1014.007 1498.961 1014.004 L 1495.423 1014 1491.461 1011.955 L 1487.500 1009.909 1479 1008.494 L 1470.500 1007.078 1465.500 1006.077 L 1460.500 1005.076 1456.750 1004.492 L 1453 1003.909 1453 1002.955 L 1453 1002 1454.750 1001.958 L 1456.500 1001.917 1466.200 998.622 L 1475.901 995.327 1477.309 994.158 L 1478.718 992.989 1484.109 991.115 L 1489.500 989.241 1492.500 987.757 L 1495.500 986.274 1498.500 984.684 L 1501.500 983.095 1506.500 980.416 L 1511.500 977.738 1512 977.003 L 1512.500 976.269 1516.500 974.082 L 1520.500 971.896 1524.041 969.698 L 1527.583 967.500 1531.541 964.506 L 1535.500 961.511 1536 960.901 L 1536.500 960.291 1539.115 958.895 L 1541.731 957.500 1550.091 950 L 1558.451 942.500 1568.064 932.500 L 1577.678 922.500 1581.157 918.500 L 1584.637 914.500 1587.999 909.500 L 1591.361 904.500 1596.430 897 L 1601.500 889.500 1603.879 884.500 L 1606.258 879.500 1608.586 874.500 L 1610.915 869.500 1611.576 867 L 1612.237 864.500 1613.747 862.779 L 1615.257 861.058 1617.527 852.779 L 1619.796 844.500 1621.386 839 L 1622.976 833.500 1622.989 828.500 L 1623.002 823.500 1624.631 816 L 1626.261 808.500 1626.302 791.500 L 1626.342 774.500 1624.671 766.500 L 1623 758.500 1623 753.968 L 1623 749.436 1621.625 744.468 L 1620.249 739.500 1618.518 732.500 L 1616.787 725.500 1614.443 720.500 L 1612.098 715.500 1608.549 707.374 L 1605 699.248 1605 698.644 L 1605 698.039 1601.250 692.420 L 1597.500 686.801 1595.500 683.526 L 1593.500 680.251 1591.500 677.566 L 1589.500 674.880 1584.037 668.190 L 1578.575 661.500 1571.037 654.172 L 1563.500 646.844 1554.938 639.672 L 1546.376 632.500 1542.044 630 L 1537.712 627.500 1535.184 625.123 L 1532.655 622.746 1523.578 618.012 L 1514.500 613.278 1506.500 609.254 L 1498.500 605.229 1491.836 602.115 L 1485.171 599 1482.836 598.996 L 1480.500 598.993 1477.390 597.096 L 1474.281 595.200 1468.430 593.986 L 1462.580 592.771 1460.292 591.272 L 1458.003 589.772 1450.400 588.452 L 1442.797 587.131 1439.315 585.479 L 1435.834 583.827 1427.167 582.492 L 1418.500 581.156 1412.449 579.571 L 1406.397 577.986 1396.949 576.975 L 1387.500 575.963 1379.500 574.315 L 1371.500 572.666 1167 572.306 L 962.500 571.946 960.155 573.596 M 794.600 756.105 L 794.089 758.500 793.069 769.770 L 792.049 781.040 791.052 782.903 L 790.054 784.767 788.966 792.134 L 787.877 799.500 786.029 803.500 L 784.181 807.500 783.137 813.280 L 782.093 819.061 780.168 821.780 L 778.244 824.500 777.511 829 L 776.778 833.500 774.777 837.942 L 772.776 842.383 772.065 847.442 L 771.355 852.500 769.204 856.658 L 767.053 860.816 766.410 865.158 L 765.767 869.500 763.901 872.778 L 762.035 876.055 761.106 881.820 L 760.178 887.584 758.205 891.042 L 756.233 894.500 755.606 898.738 L 754.980 902.977 753.075 906.738 L 751.170 910.500 750.467 915 L 749.764 919.500 748.202 922.500 L 746.640 925.500 744.392 933.500 L 742.143 941.500 739.965 948 L 737.786 954.500 735.893 959.185 L 734 963.871 734 965.913 L 734 967.954 731.623 974.269 L 729.246 980.585 728.501 985.042 L 727.756 989.500 725.892 992.134 L 724.028 994.769 722.958 1000.134 L 721.887 1005.500 719.943 1009.136 L 718 1012.772 718 1015.416 L 718 1018.060 715.613 1023.780 L 713.225 1029.500 712.493 1034 L 711.760 1038.500 709.876 1042.219 L 707.991 1045.937 706.636 1051.747 L 705.281 1057.556 703.669 1060.673 L 702.057 1063.790 701.362 1068.145 L 700.666 1072.500 698.333 1077.779 L 696 1083.057 696 1085.562 L 696 1088.066 693.594 1092.814 L 691.188 1097.562 690.462 1102.531 L 689.735 1107.500 687.509 1112 L 685.283 1116.500 684.608 1120.885 L 683.933 1125.269 681.967 1127.770 L 680 1130.270 680 1132.135 L 680 1134 793.878 1134 L 907.755 1134 908.809 1132.730 L 909.864 1131.460 906.932 1124.162 L 904 1116.865 904 1114.328 L 904 1111.790 901.498 1106.809 L 898.996 1101.828 898.382 1097.664 L 897.767 1093.500 895.841 1090.121 L 893.915 1086.742 892.514 1080.621 L 891.113 1074.500 889.089 1069 L 887.065 1063.500 887.033 1060.992 L 887 1058.484 884.500 1053.788 L 882 1049.092 882 1046.963 L 882 1044.835 879 1038 L 876 1031.165 876 1028.043 L 876 1024.920 873.997 1020.993 L 871.993 1017.066 870.873 1011.783 L 869.754 1006.500 867.877 1002.790 L 866 999.080 866 996.457 L 866 993.835 863 987 L 860 980.165 859.996 978.332 L 859.993 976.500 857.031 969 L 854.069 961.500 854.034 959.239 L 854 956.978 852.036 952.739 L 850.072 948.500 849.001 943.500 L 847.931 938.500 846.394 935.199 L 844.858 931.898 844.302 928.199 L 843.746 924.500 841.306 919.535 L 838.867 914.570 837.930 909.632 L 836.994 904.694 835.522 901.744 L 834.051 898.794 832.956 892.756 L 831.861 886.717 830.356 884.421 L 828.852 882.125 827.431 876.035 L 826.011 869.946 824.516 867.664 L 823.021 865.383 822.037 860.195 L 821.053 855.007 818.943 850.374 L 816.832 845.742 816.332 842.121 L 815.832 838.500 813.980 833.500 L 812.128 828.500 811.468 825 L 810.807 821.500 808.497 816.500 L 806.187 811.500 805.019 803.693 L 803.850 795.886 802.390 792.391 L 800.930 788.897 799.926 777.698 L 798.923 766.500 797.958 761.046 L 796.993 755.593 796.052 754.652 L 795.111 753.711 794.600 756.105 M 1662.598 1131.736 L 1662 1132.333 1662 1134.110 L 1662 1135.886 1664.099 1139.443 L 1666.198 1143 1667.099 1143 L 1668 1143 1668 1140.821 L 1668 1138.642 1666.812 1135.356 L 1665.623 1132.069 1664.409 1131.604 L 1663.196 1131.138 1662.598 1131.736" stroke="none" fill="#fffcfc" fill-rule="evenodd"/></svg>